M48
METRIC,TZ
T1C0.300
T2C0.500
T3C0.800
T4C1.000
T5C1.050
T6C1.200
T7C1.600
T8C3.000
%
G90
G05
T1
X144810Y-71700
X150660Y-74650
X153240Y-82290
X158370Y-81690
X158790Y-84670
X160480Y-102230
X161010Y-50350
X164340Y-82480
X164580Y-104720
T2
X121899Y-104029
X121910Y-32460
X122558Y-102438
X122558Y-105620
X122569Y-30869
X122569Y-34051
X124149Y-101779
X124149Y-106279
X124160Y-30210
X124160Y-34710
X125740Y-102438
X125740Y-105620
X125751Y-30869
X125751Y-34051
X126399Y-104029
X126410Y-32460
X193710Y-32200
X193710Y-104329
X194369Y-30609
X194369Y-33791
X194369Y-102738
X194369Y-105920
X195960Y-29950
X195960Y-34450
X195960Y-102079
X195960Y-106579
X197551Y-30609
X197551Y-33791
X197551Y-102738
X197551Y-105920
X198210Y-32200
X198210Y-104329
T3
X147440Y-61940
X147440Y-64480
X147440Y-67020
X147440Y-69560
X147440Y-72100
X147440Y-74640
X147440Y-77180
X147440Y-87540
X147440Y-90080
X147440Y-92620
X147440Y-95160
X147440Y-97700
X147440Y-100240
X147440Y-102780
X155060Y-61940
X155060Y-64480
X155060Y-67020
X155060Y-69560
X155060Y-72100
X155060Y-74640
X155060Y-77180
X155060Y-87540
X155060Y-90080
X155060Y-92620
X155060Y-95160
X155060Y-97700
X155060Y-100240
X155060Y-102780
X158770Y-37730
X158770Y-40270
X158770Y-42810
X158770Y-45350
X158770Y-47890
X158770Y-50430
X158770Y-52970
X166390Y-37730
X166390Y-40270
X166390Y-42810
X166390Y-45350
X166390Y-47890
X166390Y-50430
X166390Y-52970
T4
X124480Y-59850
X124480Y-62350
X124480Y-64850
X124480Y-67350
X124480Y-69850
X124480Y-72350
X124480Y-74850
X124480Y-77350
X124480Y-79850
X177510Y-85780
X177510Y-88320
X177510Y-90860
X177530Y-72380
X177530Y-74920
X177530Y-77460
X177530Y-99190
X177530Y-101730
X177530Y-104270
X177553Y-58960
X177553Y-61500
X177553Y-64040
X177620Y-45540
X177620Y-48080
X177620Y-50620
X177630Y-32120
X177630Y-34660
X177630Y-37200
T5
X124480Y-87430
X124480Y-89930
T6
X128510Y-42320
X128510Y-49820
X146060Y-42320
X146060Y-49820
T7
X143730Y-33540
X148810Y-33540
X194610Y-58930
X194610Y-64010
X194610Y-69090
T8
X124149Y-104029
X124160Y-32460
X195960Y-32200
X195960Y-104329
M30
