%TF.GenerationSoftware,KiCad,Pcbnew,8.0.6*%
%TF.CreationDate,2026-03-09T17:43:57+02:00*%
%TF.ProjectId,BLDC_Drive,424c4443-5f44-4726-9976-652e6b696361,rev?*%
%TF.SameCoordinates,Original*%
%TF.FileFunction,Soldermask,Top*%
%TF.FilePolarity,Negative*%
%FSLAX46Y46*%
G04 Gerber Fmt 4.6, Leading zero omitted, Abs format (unit mm)*
G04 Created by KiCad (PCBNEW 8.0.6) date 2026-03-09 17:43:57*
%MOMM*%
%LPD*%
G01*
G04 APERTURE LIST*
G04 Aperture macros list*
%AMRoundRect*
0 Rectangle with rounded corners*
0 $1 Rounding radius*
0 $2 $3 $4 $5 $6 $7 $8 $9 X,Y pos of 4 corners*
0 Add a 4 corners polygon primitive as box body*
4,1,4,$2,$3,$4,$5,$6,$7,$8,$9,$2,$3,0*
0 Add four circle primitives for the rounded corners*
1,1,$1+$1,$2,$3*
1,1,$1+$1,$4,$5*
1,1,$1+$1,$6,$7*
1,1,$1+$1,$8,$9*
0 Add four rect primitives between the rounded corners*
20,1,$1+$1,$2,$3,$4,$5,0*
20,1,$1+$1,$4,$5,$6,$7,0*
20,1,$1+$1,$6,$7,$8,$9,0*
20,1,$1+$1,$8,$9,$2,$3,0*%
G04 Aperture macros list end*
%ADD10RoundRect,0.250000X-0.312500X-0.625000X0.312500X-0.625000X0.312500X0.625000X-0.312500X0.625000X0*%
%ADD11RoundRect,0.225000X-0.250000X0.225000X-0.250000X-0.225000X0.250000X-0.225000X0.250000X0.225000X0*%
%ADD12C,2.604000*%
%ADD13RoundRect,0.140000X-0.170000X0.140000X-0.170000X-0.140000X0.170000X-0.140000X0.170000X0.140000X0*%
%ADD14RoundRect,0.200000X-0.275000X0.200000X-0.275000X-0.200000X0.275000X-0.200000X0.275000X0.200000X0*%
%ADD15C,0.800000*%
%ADD16C,6.000000*%
%ADD17RoundRect,0.225000X-0.375000X0.225000X-0.375000X-0.225000X0.375000X-0.225000X0.375000X0.225000X0*%
%ADD18RoundRect,0.102000X-0.787500X0.787500X-0.787500X-0.787500X0.787500X-0.787500X0.787500X0.787500X0*%
%ADD19C,1.779000*%
%ADD20R,2.400000X2.400000*%
%ADD21C,2.400000*%
%ADD22RoundRect,0.102000X-0.754000X0.754000X-0.754000X-0.754000X0.754000X-0.754000X0.754000X0.754000X0*%
%ADD23C,1.712000*%
%ADD24RoundRect,0.250000X0.312500X0.625000X-0.312500X0.625000X-0.312500X-0.625000X0.312500X-0.625000X0*%
%ADD25RoundRect,0.250000X-0.625000X0.312500X-0.625000X-0.312500X0.625000X-0.312500X0.625000X0.312500X0*%
%ADD26RoundRect,0.225000X-0.225000X-0.375000X0.225000X-0.375000X0.225000X0.375000X-0.225000X0.375000X0*%
%ADD27RoundRect,0.150000X0.512500X0.150000X-0.512500X0.150000X-0.512500X-0.150000X0.512500X-0.150000X0*%
%ADD28O,3.220000X1.712000*%
%ADD29R,1.600000X1.600000*%
%ADD30O,1.600000X1.600000*%
%ADD31RoundRect,0.250000X-0.362500X-1.425000X0.362500X-1.425000X0.362500X1.425000X-0.362500X1.425000X0*%
G04 APERTURE END LIST*
D10*
%TO.C,R16*%
X169567500Y-100906219D03*
X172492500Y-100906219D03*
%TD*%
%TO.C,R1*%
X169375000Y-33836219D03*
X172300000Y-33836219D03*
%TD*%
D11*
%TO.C,C10*%
X162920000Y-65335000D03*
X162920000Y-66885000D03*
%TD*%
D12*
%TO.C,J3*%
X148810000Y-33540000D03*
X143730000Y-33540000D03*
%TD*%
D11*
%TO.C,C14*%
X157290000Y-98105000D03*
X157290000Y-99655000D03*
%TD*%
%TO.C,C1*%
X156650000Y-40270000D03*
X156650000Y-41820000D03*
%TD*%
D13*
%TO.C,C2*%
X155270000Y-40565000D03*
X155270000Y-41525000D03*
%TD*%
D11*
%TO.C,C6*%
X144740000Y-64480000D03*
X144740000Y-66030000D03*
%TD*%
D14*
%TO.C,R13*%
X174570000Y-74096219D03*
X174570000Y-75746219D03*
%TD*%
D15*
%TO.C,H3*%
X193710000Y-104329010D03*
X194369010Y-102738020D03*
X194369010Y-105920000D03*
X195960000Y-102079010D03*
D16*
X195960000Y-104329010D03*
D15*
X195960000Y-106579010D03*
X197550990Y-102738020D03*
X197550990Y-105920000D03*
X198210000Y-104329010D03*
%TD*%
D10*
%TO.C,R15*%
X169567500Y-87496219D03*
X172492500Y-87496219D03*
%TD*%
%TO.C,R3*%
X169347500Y-30800000D03*
X172272500Y-30800000D03*
%TD*%
D17*
%TO.C,D8*%
X167310000Y-100906219D03*
X167310000Y-104206219D03*
%TD*%
D18*
%TO.C,J1*%
X124480000Y-89930000D03*
D19*
X124480000Y-87430000D03*
%TD*%
D20*
%TO.C,C18*%
X128510000Y-42320000D03*
D21*
X128510000Y-49820000D03*
%TD*%
D13*
%TO.C,C7*%
X143410000Y-64770000D03*
X143410000Y-65730000D03*
%TD*%
D22*
%TO.C,J2*%
X124480000Y-79850000D03*
D23*
X124480000Y-77350000D03*
X124480000Y-74850000D03*
X124480000Y-72350000D03*
X124480000Y-69850000D03*
X124480000Y-67350000D03*
X124480000Y-64850000D03*
X124480000Y-62350000D03*
X124480000Y-59850000D03*
%TD*%
D11*
%TO.C,C15*%
X162920000Y-90932500D03*
X162920000Y-92482500D03*
%TD*%
%TO.C,C11*%
X144740000Y-90080000D03*
X144740000Y-91630000D03*
%TD*%
%TO.C,C5*%
X173080000Y-39035000D03*
X173080000Y-40585000D03*
%TD*%
D17*
%TO.C,D9*%
X160830000Y-90080000D03*
X160830000Y-93380000D03*
%TD*%
D10*
%TO.C,R17*%
X169567500Y-90260000D03*
X172492500Y-90260000D03*
%TD*%
D24*
%TO.C,R18*%
X172492500Y-103690000D03*
X169567500Y-103690000D03*
%TD*%
D17*
%TO.C,D2*%
X171460000Y-48080000D03*
X171460000Y-51380000D03*
%TD*%
D10*
%TO.C,R2*%
X169607500Y-45516219D03*
X172532500Y-45516219D03*
%TD*%
%TO.C,R10*%
X169567500Y-63690000D03*
X172492500Y-63690000D03*
%TD*%
D15*
%TO.C,H1*%
X126410000Y-32460000D03*
X125750990Y-34050990D03*
X125750990Y-30869010D03*
X124160000Y-34710000D03*
D16*
X124160000Y-32460000D03*
D15*
X124160000Y-30210000D03*
X122569010Y-34050990D03*
X122569010Y-30869010D03*
X121910000Y-32460000D03*
%TD*%
D17*
%TO.C,D6*%
X160830000Y-64482500D03*
X160830000Y-67782500D03*
%TD*%
D14*
%TO.C,R19*%
X174570000Y-87496219D03*
X174570000Y-89146219D03*
%TD*%
D13*
%TO.C,C3*%
X168080000Y-48725000D03*
X168080000Y-49685000D03*
%TD*%
%TO.C,C8*%
X158630000Y-73110000D03*
X158630000Y-74070000D03*
%TD*%
D24*
%TO.C,R11*%
X172492500Y-77060000D03*
X169567500Y-77060000D03*
%TD*%
D14*
%TO.C,R8*%
X174560000Y-45030000D03*
X174560000Y-46680000D03*
%TD*%
D17*
%TO.C,D5*%
X167310000Y-74150000D03*
X167310000Y-77450000D03*
%TD*%
D25*
%TO.C,R4*%
X173910000Y-48250000D03*
X173910000Y-51175000D03*
%TD*%
D10*
%TO.C,R5*%
X169567500Y-60670000D03*
X172492500Y-60670000D03*
%TD*%
D13*
%TO.C,C13*%
X158630000Y-98400000D03*
X158630000Y-99360000D03*
%TD*%
D11*
%TO.C,C9*%
X157290000Y-72815000D03*
X157290000Y-74365000D03*
%TD*%
D20*
%TO.C,C17*%
X146060000Y-42320000D03*
D21*
X146060000Y-49820000D03*
%TD*%
D12*
%TO.C,J4*%
X194610000Y-69090000D03*
X194610000Y-64010000D03*
X194610000Y-58930000D03*
%TD*%
D15*
%TO.C,H2*%
X198210000Y-32200000D03*
X197550990Y-33790990D03*
X197550990Y-30609010D03*
X195960000Y-34450000D03*
D16*
X195960000Y-32200000D03*
D15*
X195960000Y-29950000D03*
X194369010Y-33790990D03*
X194369010Y-30609010D03*
X193710000Y-32200000D03*
%TD*%
D11*
%TO.C,C4*%
X169330000Y-48430000D03*
X169330000Y-49980000D03*
%TD*%
D10*
%TO.C,R7*%
X169567500Y-74130000D03*
X172492500Y-74130000D03*
%TD*%
D14*
%TO.C,R20*%
X174570000Y-100906219D03*
X174570000Y-102556219D03*
%TD*%
D13*
%TO.C,C12*%
X143410000Y-90375000D03*
X143410000Y-91335000D03*
%TD*%
D14*
%TO.C,R12*%
X174570000Y-60676219D03*
X174570000Y-62326219D03*
%TD*%
D26*
%TO.C,D1*%
X163230000Y-30800000D03*
X166530000Y-30800000D03*
%TD*%
D14*
%TO.C,R6*%
X174570000Y-33836219D03*
X174570000Y-35486219D03*
%TD*%
D17*
%TO.C,D4*%
X167310000Y-60650000D03*
X167310000Y-63950000D03*
%TD*%
%TO.C,D7*%
X167310000Y-87496219D03*
X167310000Y-90796219D03*
%TD*%
%TO.C,D3*%
X171050000Y-39000000D03*
X171050000Y-42300000D03*
%TD*%
D27*
%TO.C,U4*%
X162835000Y-83440000D03*
X162835000Y-82490000D03*
X162835000Y-81540000D03*
X160560000Y-81540000D03*
X160560000Y-83440000D03*
%TD*%
%TO.C,U6*%
X162850000Y-105300000D03*
X162850000Y-104350000D03*
X162850000Y-103400000D03*
X160575000Y-103400000D03*
X160575000Y-105300000D03*
%TD*%
D28*
%TO.C,CL*%
X177530000Y-99190000D03*
X177530000Y-101730000D03*
X177530000Y-104270000D03*
%TD*%
%TO.C,AL*%
X177620000Y-45540000D03*
X177620000Y-48080000D03*
X177620000Y-50620000D03*
%TD*%
D29*
%TO.C,GDC*%
X155060000Y-102780000D03*
D30*
X155060000Y-100240000D03*
X155060000Y-97700000D03*
X155060000Y-95160000D03*
X155060000Y-92620000D03*
X155060000Y-90080000D03*
X155060000Y-87540000D03*
X147440000Y-87540000D03*
X147440000Y-90080000D03*
X147440000Y-92620000D03*
X147440000Y-95160000D03*
X147440000Y-97700000D03*
X147440000Y-100240000D03*
X147440000Y-102780000D03*
%TD*%
D28*
%TO.C,BL*%
X177530000Y-72380000D03*
X177530000Y-74920000D03*
X177530000Y-77460000D03*
%TD*%
%TO.C,CH*%
X177510000Y-85780000D03*
X177510000Y-88320000D03*
X177510000Y-90860000D03*
%TD*%
%TO.C,AH*%
X177630000Y-32120000D03*
X177630000Y-34660000D03*
X177630000Y-37200000D03*
%TD*%
D31*
%TO.C,Shunt B*%
X187097500Y-77520000D03*
X193022500Y-77520000D03*
%TD*%
D29*
%TO.C,GDA*%
X166390000Y-52970000D03*
D30*
X166390000Y-50430000D03*
X166390000Y-47890000D03*
X166390000Y-45350000D03*
X166390000Y-42810000D03*
X166390000Y-40270000D03*
X166390000Y-37730000D03*
X158770000Y-37730000D03*
X158770000Y-40270000D03*
X158770000Y-42810000D03*
X158770000Y-45350000D03*
X158770000Y-47890000D03*
X158770000Y-50430000D03*
X158770000Y-52970000D03*
%TD*%
D29*
%TO.C,GDB*%
X155060000Y-77180000D03*
D30*
X155060000Y-74640000D03*
X155060000Y-72100000D03*
X155060000Y-69560000D03*
X155060000Y-67020000D03*
X155060000Y-64480000D03*
X155060000Y-61940000D03*
X147440000Y-61940000D03*
X147440000Y-64480000D03*
X147440000Y-67020000D03*
X147440000Y-69560000D03*
X147440000Y-72100000D03*
X147440000Y-74640000D03*
X147440000Y-77180000D03*
%TD*%
D28*
%TO.C,BH*%
X177552500Y-58960000D03*
X177552500Y-61500000D03*
X177552500Y-64040000D03*
%TD*%
D31*
%TO.C,Shunt C*%
X187097500Y-98080000D03*
X193022500Y-98080000D03*
%TD*%
D15*
%TO.C,H4*%
X121899010Y-104029010D03*
X122558020Y-102438020D03*
X122558020Y-105620000D03*
X124149010Y-101779010D03*
D16*
X124149010Y-104029010D03*
D15*
X124149010Y-106279010D03*
X125740000Y-102438020D03*
X125740000Y-105620000D03*
X126399010Y-104029010D03*
%TD*%
M02*
