%TF.GenerationSoftware,KiCad,Pcbnew,8.0.6*%
%TF.CreationDate,2026-03-09T17:43:57+02:00*%
%TF.ProjectId,BLDC_Drive,424c4443-5f44-4726-9976-652e6b696361,rev?*%
%TF.SameCoordinates,Original*%
%TF.FileFunction,Soldermask,Bot*%
%TF.FilePolarity,Negative*%
%FSLAX46Y46*%
G04 Gerber Fmt 4.6, Leading zero omitted, Abs format (unit mm)*
G04 Created by KiCad (PCBNEW 8.0.6) date 2026-03-09 17:43:57*
%MOMM*%
%LPD*%
G01*
G04 APERTURE LIST*
G04 Aperture macros list*
%AMRoundRect*
0 Rectangle with rounded corners*
0 $1 Rounding radius*
0 $2 $3 $4 $5 $6 $7 $8 $9 X,Y pos of 4 corners*
0 Add a 4 corners polygon primitive as box body*
4,1,4,$2,$3,$4,$5,$6,$7,$8,$9,$2,$3,0*
0 Add four circle primitives for the rounded corners*
1,1,$1+$1,$2,$3*
1,1,$1+$1,$4,$5*
1,1,$1+$1,$6,$7*
1,1,$1+$1,$8,$9*
0 Add four rect primitives between the rounded corners*
20,1,$1+$1,$2,$3,$4,$5,0*
20,1,$1+$1,$4,$5,$6,$7,0*
20,1,$1+$1,$6,$7,$8,$9,0*
20,1,$1+$1,$8,$9,$2,$3,0*%
G04 Aperture macros list end*
%ADD10RoundRect,0.102000X-0.450000X-0.500000X0.450000X-0.500000X0.450000X0.500000X-0.450000X0.500000X0*%
%ADD11RoundRect,0.102000X0.450000X0.500000X-0.450000X0.500000X-0.450000X-0.500000X0.450000X-0.500000X0*%
%ADD12RoundRect,0.102000X0.500000X-0.450000X0.500000X0.450000X-0.500000X0.450000X-0.500000X-0.450000X0*%
%ADD13C,2.604000*%
%ADD14C,0.800000*%
%ADD15C,6.000000*%
%ADD16RoundRect,0.102000X-0.787500X0.787500X-0.787500X-0.787500X0.787500X-0.787500X0.787500X0.787500X0*%
%ADD17C,1.779000*%
%ADD18R,2.400000X2.400000*%
%ADD19C,2.400000*%
%ADD20RoundRect,0.102000X-0.754000X0.754000X-0.754000X-0.754000X0.754000X-0.754000X0.754000X0.754000X0*%
%ADD21C,1.712000*%
%ADD22O,3.220000X1.712000*%
%ADD23R,1.600000X1.600000*%
%ADD24O,1.600000X1.600000*%
G04 APERTURE END LIST*
D10*
%TO.C,FB5*%
X161700000Y-51760000D03*
X163800000Y-51760000D03*
%TD*%
D11*
%TO.C,FB4*%
X160570000Y-85180000D03*
X162670000Y-85180000D03*
%TD*%
D12*
%TO.C,FB3*%
X166490000Y-102620000D03*
X166490000Y-104720000D03*
%TD*%
D11*
%TO.C,FB2*%
X152890000Y-75950000D03*
X150790000Y-75950000D03*
%TD*%
%TO.C,FB1*%
X152390000Y-105600000D03*
X150290000Y-105600000D03*
%TD*%
D13*
%TO.C,J3*%
X148810000Y-33540000D03*
X143730000Y-33540000D03*
%TD*%
D14*
%TO.C,H3*%
X193710000Y-104329010D03*
X194369010Y-102738020D03*
X194369010Y-105920000D03*
X195960000Y-102079010D03*
D15*
X195960000Y-104329010D03*
D14*
X195960000Y-106579010D03*
X197550990Y-102738020D03*
X197550990Y-105920000D03*
X198210000Y-104329010D03*
%TD*%
D16*
%TO.C,J1*%
X124480000Y-89930000D03*
D17*
X124480000Y-87430000D03*
%TD*%
D18*
%TO.C,C18*%
X128510000Y-42320000D03*
D19*
X128510000Y-49820000D03*
%TD*%
D20*
%TO.C,J2*%
X124480000Y-79850000D03*
D21*
X124480000Y-77350000D03*
X124480000Y-74850000D03*
X124480000Y-72350000D03*
X124480000Y-69850000D03*
X124480000Y-67350000D03*
X124480000Y-64850000D03*
X124480000Y-62350000D03*
X124480000Y-59850000D03*
%TD*%
D14*
%TO.C,H1*%
X126410000Y-32460000D03*
X125750990Y-34050990D03*
X125750990Y-30869010D03*
X124160000Y-34710000D03*
D15*
X124160000Y-32460000D03*
D14*
X124160000Y-30210000D03*
X122569010Y-34050990D03*
X122569010Y-30869010D03*
X121910000Y-32460000D03*
%TD*%
D18*
%TO.C,C17*%
X146060000Y-42320000D03*
D19*
X146060000Y-49820000D03*
%TD*%
D13*
%TO.C,J4*%
X194610000Y-69090000D03*
X194610000Y-64010000D03*
X194610000Y-58930000D03*
%TD*%
D14*
%TO.C,H2*%
X198210000Y-32200000D03*
X197550990Y-33790990D03*
X197550990Y-30609010D03*
X195960000Y-34450000D03*
D15*
X195960000Y-32200000D03*
D14*
X195960000Y-29950000D03*
X194369010Y-33790990D03*
X194369010Y-30609010D03*
X193710000Y-32200000D03*
%TD*%
D22*
%TO.C,CL*%
X177530000Y-99190000D03*
X177530000Y-101730000D03*
X177530000Y-104270000D03*
%TD*%
%TO.C,AL*%
X177620000Y-45540000D03*
X177620000Y-48080000D03*
X177620000Y-50620000D03*
%TD*%
D23*
%TO.C,GDC*%
X155060000Y-102780000D03*
D24*
X155060000Y-100240000D03*
X155060000Y-97700000D03*
X155060000Y-95160000D03*
X155060000Y-92620000D03*
X155060000Y-90080000D03*
X155060000Y-87540000D03*
X147440000Y-87540000D03*
X147440000Y-90080000D03*
X147440000Y-92620000D03*
X147440000Y-95160000D03*
X147440000Y-97700000D03*
X147440000Y-100240000D03*
X147440000Y-102780000D03*
%TD*%
D22*
%TO.C,BL*%
X177530000Y-72380000D03*
X177530000Y-74920000D03*
X177530000Y-77460000D03*
%TD*%
%TO.C,CH*%
X177510000Y-85780000D03*
X177510000Y-88320000D03*
X177510000Y-90860000D03*
%TD*%
%TO.C,AH*%
X177630000Y-32120000D03*
X177630000Y-34660000D03*
X177630000Y-37200000D03*
%TD*%
D23*
%TO.C,GDA*%
X166390000Y-52970000D03*
D24*
X166390000Y-50430000D03*
X166390000Y-47890000D03*
X166390000Y-45350000D03*
X166390000Y-42810000D03*
X166390000Y-40270000D03*
X166390000Y-37730000D03*
X158770000Y-37730000D03*
X158770000Y-40270000D03*
X158770000Y-42810000D03*
X158770000Y-45350000D03*
X158770000Y-47890000D03*
X158770000Y-50430000D03*
X158770000Y-52970000D03*
%TD*%
D23*
%TO.C,GDB*%
X155060000Y-77180000D03*
D24*
X155060000Y-74640000D03*
X155060000Y-72100000D03*
X155060000Y-69560000D03*
X155060000Y-67020000D03*
X155060000Y-64480000D03*
X155060000Y-61940000D03*
X147440000Y-61940000D03*
X147440000Y-64480000D03*
X147440000Y-67020000D03*
X147440000Y-69560000D03*
X147440000Y-72100000D03*
X147440000Y-74640000D03*
X147440000Y-77180000D03*
%TD*%
D22*
%TO.C,BH*%
X177552500Y-58960000D03*
X177552500Y-61500000D03*
X177552500Y-64040000D03*
%TD*%
D14*
%TO.C,H4*%
X121899010Y-104029010D03*
X122558020Y-102438020D03*
X122558020Y-105620000D03*
X124149010Y-101779010D03*
D15*
X124149010Y-104029010D03*
D14*
X124149010Y-106279010D03*
X125740000Y-102438020D03*
X125740000Y-105620000D03*
X126399010Y-104029010D03*
%TD*%
M02*
