M48
; DRILL file {KiCad 8.0.6} date 2026-03-09T17:43:57+0200
; FORMAT={-:-/ absolute / metric / decimal}
; #@! TF.CreationDate,2026-03-09T17:43:57+02:00
; #@! TF.GenerationSoftware,Kicad,Pcbnew,8.0.6
; #@! TF.FileFunction,Plated,1,2,PTH
FMAT,2
METRIC
; #@! TA.AperFunction,Plated,PTH,ViaDrill
T1C0.300
; #@! TA.AperFunction,Plated,PTH,ComponentDrill
T2C0.500
; #@! TA.AperFunction,Plated,PTH,ComponentDrill
T3C0.800
; #@! TA.AperFunction,Plated,PTH,ComponentDrill
T4C1.000
; #@! TA.AperFunction,Plated,PTH,ComponentDrill
T5C1.050
; #@! TA.AperFunction,Plated,PTH,ComponentDrill
T6C1.200
; #@! TA.AperFunction,Plated,PTH,ComponentDrill
T7C1.600
; #@! TA.AperFunction,Plated,PTH,ComponentDrill
T8C3.000
%
G90
G05
T1
X144.81Y-71.7
X150.66Y-74.65
X153.24Y-82.29
X158.37Y-81.69
X158.79Y-84.67
X160.48Y-102.23
X161.01Y-50.35
X164.34Y-82.48
X164.58Y-104.72
T2
X121.899Y-104.029
X121.91Y-32.46
X122.558Y-102.438
X122.558Y-105.62
X122.569Y-30.869
X122.569Y-34.051
X124.149Y-101.779
X124.149Y-106.279
X124.16Y-30.21
X124.16Y-34.71
X125.74Y-102.438
X125.74Y-105.62
X125.751Y-30.869
X125.751Y-34.051
X126.399Y-104.029
X126.41Y-32.46
X193.71Y-32.2
X193.71Y-104.329
X194.369Y-30.609
X194.369Y-33.791
X194.369Y-102.738
X194.369Y-105.92
X195.96Y-29.95
X195.96Y-34.45
X195.96Y-102.079
X195.96Y-106.579
X197.551Y-30.609
X197.551Y-33.791
X197.551Y-102.738
X197.551Y-105.92
X198.21Y-32.2
X198.21Y-104.329
T3
X147.44Y-61.94
X147.44Y-64.48
X147.44Y-67.02
X147.44Y-69.56
X147.44Y-72.1
X147.44Y-74.64
X147.44Y-77.18
X147.44Y-87.54
X147.44Y-90.08
X147.44Y-92.62
X147.44Y-95.16
X147.44Y-97.7
X147.44Y-100.24
X147.44Y-102.78
X155.06Y-61.94
X155.06Y-64.48
X155.06Y-67.02
X155.06Y-69.56
X155.06Y-72.1
X155.06Y-74.64
X155.06Y-77.18
X155.06Y-87.54
X155.06Y-90.08
X155.06Y-92.62
X155.06Y-95.16
X155.06Y-97.7
X155.06Y-100.24
X155.06Y-102.78
X158.77Y-37.73
X158.77Y-40.27
X158.77Y-42.81
X158.77Y-45.35
X158.77Y-47.89
X158.77Y-50.43
X158.77Y-52.97
X166.39Y-37.73
X166.39Y-40.27
X166.39Y-42.81
X166.39Y-45.35
X166.39Y-47.89
X166.39Y-50.43
X166.39Y-52.97
T4
X124.48Y-59.85
X124.48Y-62.35
X124.48Y-64.85
X124.48Y-67.35
X124.48Y-69.85
X124.48Y-72.35
X124.48Y-74.85
X124.48Y-77.35
X124.48Y-79.85
X177.51Y-85.78
X177.51Y-88.32
X177.51Y-90.86
X177.53Y-72.38
X177.53Y-74.92
X177.53Y-77.46
X177.53Y-99.19
X177.53Y-101.73
X177.53Y-104.27
X177.552Y-58.96
X177.552Y-61.5
X177.552Y-64.04
X177.62Y-45.54
X177.62Y-48.08
X177.62Y-50.62
X177.63Y-32.12
X177.63Y-34.66
X177.63Y-37.2
T5
X124.48Y-87.43
X124.48Y-89.93
T6
X128.51Y-42.32
X128.51Y-49.82
X146.06Y-42.32
X146.06Y-49.82
T7
X143.73Y-33.54
X148.81Y-33.54
X194.61Y-58.93
X194.61Y-64.01
X194.61Y-69.09
T8
X124.149Y-104.029
X124.16Y-32.46
X195.96Y-32.2
X195.96Y-104.329
M30
