%TF.GenerationSoftware,KiCad,Pcbnew,8.0.6*%
%TF.CreationDate,2026-03-09T17:43:57+02:00*%
%TF.ProjectId,BLDC_Drive,424c4443-5f44-4726-9976-652e6b696361,rev?*%
%TF.SameCoordinates,Original*%
%TF.FileFunction,Legend,Bot*%
%TF.FilePolarity,Positive*%
%FSLAX46Y46*%
G04 Gerber Fmt 4.6, Leading zero omitted, Abs format (unit mm)*
G04 Created by KiCad (PCBNEW 8.0.6) date 2026-03-09 17:43:57*
%MOMM*%
%LPD*%
G01*
G04 APERTURE LIST*
%ADD10C,0.200000*%
%ADD11C,0.350000*%
G04 APERTURE END LIST*
D10*
%TO.C,FB5*%
X163050000Y-52460000D02*
X162450000Y-52460000D01*
X162450000Y-51060000D02*
X163050000Y-51060000D01*
%TO.C,FB4*%
X161920000Y-85880000D02*
X161320000Y-85880000D01*
X161320000Y-84480000D02*
X161920000Y-84480000D01*
%TO.C,FB3*%
X165790000Y-103970000D02*
X165790000Y-103370000D01*
X167190000Y-103370000D02*
X167190000Y-103970000D01*
%TO.C,FB2*%
X151540000Y-75250000D02*
X152140000Y-75250000D01*
X152140000Y-76650000D02*
X151540000Y-76650000D01*
%TO.C,FB1*%
X151040000Y-104900000D02*
X151640000Y-104900000D01*
X151640000Y-106300000D02*
X151040000Y-106300000D01*
%TD*%
D11*
X148810000Y-33540000D03*
X143730000Y-33540000D03*
X193710000Y-104329010D03*
X194369010Y-102738020D03*
X194369010Y-105920000D03*
X195960000Y-102079010D03*
X195960000Y-104329010D03*
X195960000Y-106579010D03*
X197550990Y-102738020D03*
X197550990Y-105920000D03*
X198210000Y-104329010D03*
X124480000Y-89930000D03*
X124480000Y-87430000D03*
X128510000Y-42320000D03*
X128510000Y-49820000D03*
X124480000Y-79850000D03*
X124480000Y-77350000D03*
X124480000Y-74850000D03*
X124480000Y-72350000D03*
X124480000Y-69850000D03*
X124480000Y-67350000D03*
X124480000Y-64850000D03*
X124480000Y-62350000D03*
X124480000Y-59850000D03*
X126410000Y-32460000D03*
X125750990Y-34050990D03*
X125750990Y-30869010D03*
X124160000Y-34710000D03*
X124160000Y-32460000D03*
X124160000Y-30210000D03*
X122569010Y-34050990D03*
X122569010Y-30869010D03*
X121910000Y-32460000D03*
X146060000Y-42320000D03*
X146060000Y-49820000D03*
X194610000Y-69090000D03*
X194610000Y-64010000D03*
X194610000Y-58930000D03*
X198210000Y-32200000D03*
X197550990Y-33790990D03*
X197550990Y-30609010D03*
X195960000Y-34450000D03*
X195960000Y-32200000D03*
X195960000Y-29950000D03*
X194369010Y-33790990D03*
X194369010Y-30609010D03*
X193710000Y-32200000D03*
X177530000Y-99190000D03*
X177530000Y-101730000D03*
X177530000Y-104270000D03*
X177620000Y-45540000D03*
X177620000Y-48080000D03*
X177620000Y-50620000D03*
X155060000Y-102780000D03*
X155060000Y-100240000D03*
X155060000Y-97700000D03*
X155060000Y-95160000D03*
X155060000Y-92620000D03*
X155060000Y-90080000D03*
X155060000Y-87540000D03*
X147440000Y-87540000D03*
X147440000Y-90080000D03*
X147440000Y-92620000D03*
X147440000Y-95160000D03*
X147440000Y-97700000D03*
X147440000Y-100240000D03*
X147440000Y-102780000D03*
X177530000Y-72380000D03*
X177530000Y-74920000D03*
X177530000Y-77460000D03*
X177510000Y-85780000D03*
X177510000Y-88320000D03*
X177510000Y-90860000D03*
X177630000Y-32120000D03*
X177630000Y-34660000D03*
X177630000Y-37200000D03*
X166390000Y-52970000D03*
X166390000Y-50430000D03*
X166390000Y-47890000D03*
X166390000Y-45350000D03*
X166390000Y-42810000D03*
X166390000Y-40270000D03*
X166390000Y-37730000D03*
X158770000Y-37730000D03*
X158770000Y-40270000D03*
X158770000Y-42810000D03*
X158770000Y-45350000D03*
X158770000Y-47890000D03*
X158770000Y-50430000D03*
X158770000Y-52970000D03*
X155060000Y-77180000D03*
X155060000Y-74640000D03*
X155060000Y-72100000D03*
X155060000Y-69560000D03*
X155060000Y-67020000D03*
X155060000Y-64480000D03*
X155060000Y-61940000D03*
X147440000Y-61940000D03*
X147440000Y-64480000D03*
X147440000Y-67020000D03*
X147440000Y-69560000D03*
X147440000Y-72100000D03*
X147440000Y-74640000D03*
X147440000Y-77180000D03*
X177552500Y-58960000D03*
X177552500Y-61500000D03*
X177552500Y-64040000D03*
X121899010Y-104029010D03*
X122558020Y-102438020D03*
X122558020Y-105620000D03*
X124149010Y-101779010D03*
X124149010Y-104029010D03*
X124149010Y-106279010D03*
X125740000Y-102438020D03*
X125740000Y-105620000D03*
X126399010Y-104029010D03*
M02*
